<svg version="1.1" id="Layer_1" xmlns="http://www.w3.org/2000/svg" x="0" y="0" viewBox="0 0 81.8 26.8" xml:space="preserve"><style>.st0{fill:#d14f2a}.st2{fill:#f6d330}.st6{font-family:&apos;Rockwell-Regular&apos;}.st7{font-size:15.7823px}</style><path class="st0" d="M58.7 4.9c-2.2 4.3-4.1 4.6-4.1 4.6s-.8 1.1-2.6 1.4c-1.6.3-4.4-1.2-4.8-1.4 0 0-5.1.4-8.6 1s-6.7 1.3-6.9 1.4c-3.5 3.9-8.7 4.6-11.1 0 0 0-2.7-.3-3.6-.5-.8-.2-4-1.8-4-1.8s-4.8.2-5.2.2c-.4 0-.5-.2-.2-.7.3-.5 4.7-1.5 4.7-1.5s-3 .3-4.1.3c-1.1 0-4.1.5-4.7.4-.6-.1-.4-.7 1.2-1.5 1.6-.7 6.2-1 6.2-1s-2.4-.2-2.6-.5.2-.6 1.4-.9c1.2-.3 4.1-.1 5.8.3s6.6 3.4 6.6 3.4 1.4-.7 3.7-.9c2.3-.2 4.7.9 4.7.9H32c2.2 0 8.9-.3 10.7-1.3.6-2.7 3.6-2.2 3.6-2.2s-2.7-.7-3.3-.5c-.7.2-1.9 1-4.2.8S34.3 1 34.3 1s.6.6 2.2 1.7 2.6.8 3.8.5c1.2-.4 4.6-1 4.6-1L43 1.9s1.8-.7 2.8-.8c.9-.1 2.4 0 2.4 0s.2-.4 1.3-.3c1.1.1 2.3 1.1 2.3 1.1l-.2-.8s2.4 1.4 2.8 2.4c.4 1.1-1.5 2.5-1.5 2.5s.8.3 2.2.4c1.3.1 3.6-1.5 3.6-1.5"/><path d="M3.3 7.9c.7-.4 1.6-.7 2.2-.7 1.5 0 7.3-.5 8.2 0 1 .5-1 1.3-.5 1.7.5.4 4 1.7 4.5 1.7s2.8 1.3 2.8 1.3-2.7-.3-3.6-.5c-.8-.2-4-1.8-4-1.8s-4.7.2-5.1.2c-.4 0-.5-.2-.2-.7.3-.5 4.7-1.5 4.7-1.5s-3 .3-4.1.3c-1.1 0-4.1.5-4.7.4-.2 0-.4-.2-.2-.4m27.1.2v.1c0-.1-.6 1.4-3.4 1.9-2.8.4-4.9.7-5.1 0-.1-.7.2-1.9.2-1.9v-.1c.3-.1 1.7-.7 3.7-.9 2.1-.2 4.2.7 4.6.9" fill="#d87458"/><path class="st2" d="M58.7 4.9c-2.2 4.3-4.1 4.6-4.1 4.6s-.9 1.1-2.6 1.4c-1.6.3-4.4-1.2-4.8-1.4l-.1-.1c-.1-.3-.3-1 0-1.7.4-.8 1.4-.6 3-.5 1.6.1 2.7-1.1 2.7-1.1s.8.3 2.2.4c1.4 0 3.7-1.6 3.7-1.6"/><path d="M52.8 6.1c-.1.1-.2.2-.4.3-.5.3-1.3.8-2.4.8-.6 0-1-.1-1.4-.1-.2-.8 0-1.8 0-1.8l4.2.8z" fill="#db8133"/><path d="M51.4 5.8c-.1.3-.4.6-.8.6-.5 0-.9-.4-.9-.9v-.1l1.7.4" fill="#fff"/><path class="st2" d="M24.3 14.9c2.7 0 4.9 1.7 4.9 3.7 0 2.1-2.2 3.7-4.9 3.7-1.2 0-2.2-.3-3.1-.8.4.1.9.2 1.4.2.8 0 1.5-.2 2.1-.5 1.9-.1 3.5-1.3 3.5-2.6 0-1.5-1.7-2.7-3.8-2.7-1.9 0-3.5.9-3.8 2.2-.5.3-.9.7-1.1 1.1-.1-.2-.1-.4-.1-.6 0-2 2.2-3.7 4.9-3.7"/><path d="M24.4 21.4s.1 0 .1-.1c0 .1-.1.1-.1.1m0 0c-.1 0-.2.1-.3.1.1 0 .2 0 .3-.1zm-.4.2h-.1.1zm-.1 0c-.1 0-.1 0-.2.1.1-.1.1-.1.2-.1zm-4.5-2.9c0 .2 0 .4.1.6-.1.1-.1.3-.1.4 0 .8.8 1.5 1.9 1.8.6.4 1.4.7 2.2.8-.3 0-.5.1-.8.1-2.1 0-3.8-1.2-3.8-2.7 0-.5.2-1.1.6-1.5-.1.2-.1.3-.1.5zm7.1 1.1c0 .5-.2.9-.5 1.3-.4.1-.8.2-1.3.2 0 0-.1 0-.1.1.8-.4 1.3-1 1.3-1.6 0-1.1-1.4-2-3.2-2-.8 0-1.5.2-2.1.5.1-.3.2-.6.4-.8.5-.2 1.1-.3 1.6-.3 2.1-.1 3.8 1.1 3.9 2.6z" fill="#e5bd34"/><path class="st0" d="M35.8 4.4c-3.9 0-6.7 0-10.5-.3 3.3-.2 6.9-.1 10.5-.2v.5zm5.2 2c-2.2 0-3.8 0-5.9-.3C37 5.9 39 6 41 5.9v.5zm-7.8 0c-.6 0-.9 0-1.5-.3.5-.2 1-.1 1.5-.2v.5zM6.9 5.3c-1.4 0-2.5 0-3.9-.3 1.3-.1 2.6 0 3.9-.1v.4zm15 9.5c-3.9 0-6.7 0-10.5-.3 3.3-.2 6.9-.1 10.5-.2v.5z"/><text transform="translate(58.363 22.39)" class="st0 st6 st7">DB</text><text transform="translate(29.209 22.397)" class="st0 st6 st7">mig</text></svg>